<?xml version="1.0" encoding="UTF-8" standalone="no"?>
<svg xmlns="http://www.w3.org/2000/svg" version="1.1" width="400" height="400">
  <defs>
    <filter color-interpolation-filters="sRGB" id="filter3828">
      <feGaussianBlur in="SourceAlpha" stdDeviation="23" result="result1"/>
      <feDiffuseLighting in="result1" diffuseConstant="0.8" surfaceScale="23" lighting-color="#0000ff" kernelUnitLength="1" result="result2">
        <feDistantLight azimuth="225" elevation="32"/>
      </feDiffuseLighting>
      <feComposite in="result2" in2="SourceGraphic" operator="arithmetic" k1="0" k2="1" k3="1" k4="0" result="result3"/>
      <feComposite operator="in" in="result3" in2="SourceGraphic" result="result4"/>
      <feGaussianBlur in="result4" stdDeviation="3" result="result5"/>
      <feComposite operator="in" in="result5" in2="SourceGraphic"/>
    </filter>
  </defs>
  <path d="m 396,200 a 196,196 0 0 1 -392,0 196,196 0 1 1 392,0 z" style="fill:#000033;fill-opacity:1;stroke:none;filter:url(#filter3828)"/>
  <path d="m 396,200 a 196,196 0 0 1 -392,0 196,196 0 1 1 392,0 z" style="fill:none;stroke:#000000;stroke-opacity:1;stroke-width:8"/>
  <path style="fill:#ffffff" d="m 200.35879,248.13869 -15.82985,0 c -0.30352,-17.84064 0.02,-36.6838 9.86206,-52.27273 12.99603,-20.58423 27.80845,-42.37994 27.53383,-67.87232 -0.17144,-15.91602 -7.83564,-34.380957 -24.7767,-37.851817 -11.08466,-2.27101 -26.24704,-2.55329 -32.8703,7.44955 -5.5562,8.391287 12.30243,13.667707 14.99506,22.741647 12.39828,41.78115 -43.04466,52.08734 -54.4563,18.51777 -6.28672,-18.49365 2.75789,-38.81564 18.0718,-49.770397 42.75014,-30.58121 128.1178,-21.39424 133.82668,29.573387 5.39047,48.12496 -35.06812,67.69407 -62.62472,92.09226 -11.7132,10.37068 -14.20948,24.23939 -13.73156,37.39265 z m -8.07982,16.69908 c 19.85454,-0.27024 35.87349,20.27544 30.91471,39.63224 -4.66747,18.21968 -25.82405,28.95824 -43.11693,21.66662 -17.14497,-7.22925 -24.98608,-29.87898 -15.054,-45.7555 5.83236,-9.32305 16.13526,-15.392 27.25622,-15.54336 z"/>
</svg>